<mxfile host="app.diagrams.net" modified="2024-05-11T11:20:53.140Z" agent="Mozilla/5.0 (Windows NT 10.0; Win64; x64) AppleWebKit/537.36 (KHTML, like Gecko) Chrome/124.0.0.0 Safari/537.36" etag="OGXnjG3oBpw0ZPeQcqvY" version="24.4.0" type="device">
  <diagram name="Page-1" id="13e1069c-82ec-6db2-03f1-153e76fe0fe0">
    <mxGraphModel dx="2746" dy="921" grid="1" gridSize="10" guides="1" tooltips="1" connect="1" arrows="1" fold="1" page="1" pageScale="1" pageWidth="1100" pageHeight="850" background="none" math="0" shadow="0">
      <root>
        <mxCell id="0" />
        <mxCell id="1" parent="0" />
        <mxCell id="aB7jUNRhGuKtnOPMlIsJ-2" value="" style="rounded=0;whiteSpace=wrap;html=1;fontSize=15;" parent="1" vertex="1">
          <mxGeometry x="-80" y="40" width="1060" height="670" as="geometry" />
        </mxCell>
        <mxCell id="yji1xwqEklzNrVBEh9IV-7" value="" style="rounded=0;whiteSpace=wrap;html=1;fontSize=15;" parent="1" vertex="1">
          <mxGeometry x="650" y="480" width="290" height="190" as="geometry" />
        </mxCell>
        <mxCell id="7baba1c4bc27f4b0-2" value="&lt;font style=&quot;font-size: 15px;&quot;&gt;Окно работы с плейлистами&lt;/font&gt;" style="shape=umlLifeline;perimeter=lifelinePerimeter;whiteSpace=wrap;html=1;container=1;collapsible=0;recursiveResize=0;outlineConnect=0;rounded=1;shadow=0;comic=0;labelBackgroundColor=none;strokeWidth=1;fontFamily=Verdana;fontSize=15;align=center;" parent="1" vertex="1">
          <mxGeometry x="220" y="80" width="150" height="650" as="geometry" />
        </mxCell>
        <mxCell id="7baba1c4bc27f4b0-10" value="" style="html=1;points=[];perimeter=orthogonalPerimeter;rounded=0;shadow=0;comic=0;labelBackgroundColor=none;strokeWidth=1;fontFamily=Verdana;fontSize=15;align=center;" parent="7baba1c4bc27f4b0-2" vertex="1">
          <mxGeometry x="70" y="110" width="10" height="120" as="geometry" />
        </mxCell>
        <mxCell id="7baba1c4bc27f4b0-3" value="Плейлисты" style="shape=umlLifeline;perimeter=lifelinePerimeter;whiteSpace=wrap;html=1;container=1;collapsible=0;recursiveResize=0;outlineConnect=0;rounded=1;shadow=0;comic=0;labelBackgroundColor=none;strokeWidth=1;fontFamily=Verdana;fontSize=15;align=center;" parent="1" vertex="1">
          <mxGeometry x="400" y="80" width="100" height="650" as="geometry" />
        </mxCell>
        <mxCell id="7baba1c4bc27f4b0-13" value="" style="html=1;points=[];perimeter=orthogonalPerimeter;rounded=0;shadow=0;comic=0;labelBackgroundColor=none;strokeWidth=1;fontFamily=Verdana;fontSize=15;align=center;" parent="7baba1c4bc27f4b0-3" vertex="1">
          <mxGeometry x="45" y="120" width="10" height="110" as="geometry" />
        </mxCell>
        <mxCell id="7baba1c4bc27f4b0-4" value="Треки" style="shape=umlLifeline;perimeter=lifelinePerimeter;whiteSpace=wrap;html=1;container=1;collapsible=0;recursiveResize=0;outlineConnect=0;rounded=1;shadow=0;comic=0;labelBackgroundColor=none;strokeWidth=1;fontFamily=Verdana;fontSize=15;align=center;" parent="1" vertex="1">
          <mxGeometry x="540" y="80" width="100" height="650" as="geometry" />
        </mxCell>
        <mxCell id="yji1xwqEklzNrVBEh9IV-3" value="Вернуть список&lt;br style=&quot;font-size: 15px;&quot;&gt;треков" style="html=1;verticalAlign=bottom;endArrow=block;labelBackgroundColor=none;fontFamily=Verdana;fontSize=15;edgeStyle=elbowEdgeStyle;elbow=vertical;dashed=1;" parent="7baba1c4bc27f4b0-4" edge="1">
          <mxGeometry x="-0.0031" relative="1" as="geometry">
            <mxPoint x="43" y="198" as="sourcePoint" />
            <mxPoint x="-85" y="197.99999999999997" as="targetPoint" />
            <Array as="points">
              <mxPoint x="-17" y="198" />
            </Array>
            <mxPoint as="offset" />
          </mxGeometry>
        </mxCell>
        <mxCell id="7baba1c4bc27f4b0-5" value="Аудиоплеер" style="shape=umlLifeline;perimeter=lifelinePerimeter;whiteSpace=wrap;html=1;container=1;collapsible=0;recursiveResize=0;outlineConnect=0;rounded=1;shadow=0;comic=0;labelBackgroundColor=none;strokeWidth=1;fontFamily=Verdana;fontSize=15;align=center;" parent="1" vertex="1">
          <mxGeometry x="680" y="80" width="100" height="650" as="geometry" />
        </mxCell>
        <mxCell id="7baba1c4bc27f4b0-19" value="" style="html=1;points=[];perimeter=orthogonalPerimeter;rounded=0;shadow=0;comic=0;labelBackgroundColor=none;strokeWidth=1;fontFamily=Verdana;fontSize=15;align=center;" parent="7baba1c4bc27f4b0-5" vertex="1">
          <mxGeometry x="45" y="350" width="10" height="220" as="geometry" />
        </mxCell>
        <mxCell id="yji1xwqEklzNrVBEh9IV-12" value="" style="endArrow=classic;html=1;rounded=0;exitX=0.9;exitY=0.805;exitDx=0;exitDy=0;exitPerimeter=0;entryX=0.983;entryY=0.941;entryDx=0;entryDy=0;entryPerimeter=0;fontSize=15;" parent="7baba1c4bc27f4b0-5" source="7baba1c4bc27f4b0-19" target="7baba1c4bc27f4b0-19" edge="1">
          <mxGeometry width="50" height="50" relative="1" as="geometry">
            <mxPoint x="-150" y="500" as="sourcePoint" />
            <mxPoint x="160" y="670" as="targetPoint" />
            <Array as="points">
              <mxPoint x="90" y="527" />
              <mxPoint x="90" y="557" />
            </Array>
          </mxGeometry>
        </mxCell>
        <mxCell id="aB7jUNRhGuKtnOPMlIsJ-1" value="Информация о треке" style="html=1;verticalAlign=bottom;endArrow=block;labelBackgroundColor=none;fontFamily=Verdana;fontSize=15;edgeStyle=elbowEdgeStyle;elbow=vertical;exitX=1.233;exitY=0.703;exitDx=0;exitDy=0;exitPerimeter=0;dashed=1;" parent="7baba1c4bc27f4b0-5" target="7baba1c4bc27f4b0-8" edge="1">
          <mxGeometry x="-0.0048" relative="1" as="geometry">
            <mxPoint x="40" y="570.3" as="sourcePoint" />
            <mxPoint x="-90" y="570" as="targetPoint" />
            <mxPoint as="offset" />
          </mxGeometry>
        </mxCell>
        <mxCell id="7baba1c4bc27f4b0-6" value="Плейлист" style="shape=umlLifeline;perimeter=lifelinePerimeter;whiteSpace=wrap;html=1;container=1;collapsible=0;recursiveResize=0;outlineConnect=0;rounded=1;shadow=0;comic=0;labelBackgroundColor=none;strokeWidth=1;fontFamily=Verdana;fontSize=15;align=center;" parent="1" vertex="1">
          <mxGeometry x="860" y="80" width="100" height="650" as="geometry" />
        </mxCell>
        <mxCell id="yji1xwqEklzNrVBEh9IV-5" value="" style="html=1;points=[];perimeter=orthogonalPerimeter;rounded=0;shadow=0;comic=0;labelBackgroundColor=none;strokeWidth=1;fontFamily=Verdana;fontSize=15;align=center;" parent="7baba1c4bc27f4b0-6" vertex="1">
          <mxGeometry x="45" y="420" width="10" height="150" as="geometry" />
        </mxCell>
        <mxCell id="7baba1c4bc27f4b0-29" value="Запрос следующего&lt;br style=&quot;font-size: 15px;&quot;&gt;&amp;nbsp;трека" style="html=1;verticalAlign=bottom;endArrow=block;labelBackgroundColor=none;fontFamily=Verdana;fontSize=15;edgeStyle=elbowEdgeStyle;elbow=vertical;exitX=0.971;exitY=0.458;exitDx=0;exitDy=0;exitPerimeter=0;" parent="7baba1c4bc27f4b0-6" edge="1" source="7baba1c4bc27f4b0-19">
          <mxGeometry x="-0.0053" relative="1" as="geometry">
            <mxPoint x="-80" y="450" as="sourcePoint" />
            <mxPoint x="45" y="450" as="targetPoint" />
            <mxPoint as="offset" />
          </mxGeometry>
        </mxCell>
        <mxCell id="yji1xwqEklzNrVBEh9IV-6" value="Вернуть следующий&lt;br style=&quot;font-size: 15px;&quot;&gt;трек" style="html=1;verticalAlign=bottom;endArrow=block;labelBackgroundColor=none;fontFamily=Verdana;fontSize=15;edgeStyle=elbowEdgeStyle;elbow=vertical;exitX=1.233;exitY=0.703;exitDx=0;exitDy=0;exitPerimeter=0;dashed=1;" parent="7baba1c4bc27f4b0-6" target="7baba1c4bc27f4b0-19" edge="1">
          <mxGeometry x="-0.0048" relative="1" as="geometry">
            <mxPoint x="45" y="501.3" as="sourcePoint" />
            <mxPoint x="-80" y="500" as="targetPoint" />
            <mxPoint as="offset" />
          </mxGeometry>
        </mxCell>
        <mxCell id="7baba1c4bc27f4b0-8" value="Окно аудиоплеера" style="shape=umlLifeline;perimeter=lifelinePerimeter;whiteSpace=wrap;html=1;container=1;collapsible=0;recursiveResize=0;outlineConnect=0;rounded=1;shadow=0;comic=0;labelBackgroundColor=none;strokeWidth=1;fontFamily=Verdana;fontSize=15;align=center;" parent="1" vertex="1">
          <mxGeometry x="100" y="80" width="110" height="650" as="geometry" />
        </mxCell>
        <mxCell id="7baba1c4bc27f4b0-9" value="" style="html=1;points=[];perimeter=orthogonalPerimeter;rounded=0;shadow=0;comic=0;labelBackgroundColor=none;strokeWidth=1;fontFamily=Verdana;fontSize=15;align=center;" parent="7baba1c4bc27f4b0-8" vertex="1">
          <mxGeometry x="45" y="100" width="10" height="490" as="geometry" />
        </mxCell>
        <mxCell id="7baba1c4bc27f4b0-16" value="" style="html=1;points=[];perimeter=orthogonalPerimeter;rounded=0;shadow=0;comic=0;labelBackgroundColor=none;strokeWidth=1;fontFamily=Verdana;fontSize=15;align=center;" parent="1" vertex="1">
          <mxGeometry x="585" y="220" width="10" height="60" as="geometry" />
        </mxCell>
        <mxCell id="7baba1c4bc27f4b0-17" value="Добавить" style="html=1;verticalAlign=bottom;endArrow=block;labelBackgroundColor=none;fontFamily=Verdana;fontSize=15;edgeStyle=elbowEdgeStyle;elbow=vertical;" parent="1" source="7baba1c4bc27f4b0-13" target="7baba1c4bc27f4b0-16" edge="1">
          <mxGeometry relative="1" as="geometry">
            <mxPoint x="510" y="220" as="sourcePoint" />
            <Array as="points">
              <mxPoint x="460" y="220" />
            </Array>
          </mxGeometry>
        </mxCell>
        <mxCell id="7baba1c4bc27f4b0-23" value="Воспроизвести плейлист" style="html=1;verticalAlign=bottom;endArrow=block;entryX=0.233;entryY=0.217;labelBackgroundColor=none;fontFamily=Verdana;fontSize=15;entryDx=0;entryDy=0;entryPerimeter=0;" parent="1" edge="1">
          <mxGeometry relative="1" as="geometry">
            <mxPoint x="154" y="433.67999999999984" as="sourcePoint" />
            <mxPoint x="726.3299999999997" y="433.67999999999984" as="targetPoint" />
          </mxGeometry>
        </mxCell>
        <mxCell id="7baba1c4bc27f4b0-14" value="Создать плейлист" style="html=1;verticalAlign=bottom;endArrow=block;labelBackgroundColor=none;fontFamily=Verdana;fontSize=15;edgeStyle=elbowEdgeStyle;elbow=vertical;" parent="1" edge="1">
          <mxGeometry relative="1" as="geometry">
            <mxPoint x="300" y="230" as="sourcePoint" />
            <mxPoint x="450" y="230" as="targetPoint" />
            <Array as="points">
              <mxPoint x="335" y="230" />
            </Array>
            <mxPoint as="offset" />
          </mxGeometry>
        </mxCell>
        <mxCell id="yji1xwqEklzNrVBEh9IV-8" value="Loop" style="text;html=1;align=center;verticalAlign=middle;resizable=0;points=[];autosize=1;strokeColor=none;fillColor=none;fontSize=15;" parent="1" vertex="1">
          <mxGeometry x="645" y="480" width="60" height="30" as="geometry" />
        </mxCell>
        <mxCell id="yji1xwqEklzNrVBEh9IV-13" value="Воспроизвести" style="text;html=1;align=center;verticalAlign=middle;resizable=0;points=[];autosize=1;strokeColor=none;fillColor=none;fontSize=15;" parent="1" vertex="1">
          <mxGeometry x="760" y="610" width="130" height="30" as="geometry" />
        </mxCell>
        <mxCell id="uxBXAlIfQE_okUX--2DA-9" value="Открыть" style="html=1;verticalAlign=bottom;endArrow=block;entryX=0;entryY=0;labelBackgroundColor=none;fontFamily=Verdana;fontSize=15;edgeStyle=elbowEdgeStyle;elbow=vertical;exitX=0.9;exitY=0.04;exitDx=0;exitDy=0;exitPerimeter=0;" edge="1" parent="1" source="uxBXAlIfQE_okUX--2DA-18">
          <mxGeometry relative="1" as="geometry">
            <mxPoint x="20" y="200" as="sourcePoint" />
            <mxPoint x="150" y="200" as="targetPoint" />
          </mxGeometry>
        </mxCell>
        <mxCell id="uxBXAlIfQE_okUX--2DA-10" value="Информация&lt;br style=&quot;font-size: 15px;&quot;&gt;&amp;nbsp;о текущем&lt;br style=&quot;font-size: 15px;&quot;&gt;плейлисте и&lt;br style=&quot;font-size: 15px;&quot;&gt;&amp;nbsp;треке" style="html=1;verticalAlign=bottom;endArrow=block;labelBackgroundColor=none;fontFamily=Verdana;fontSize=15;edgeStyle=elbowEdgeStyle;elbow=vertical;dashed=1;entryX=1.317;entryY=0.96;entryDx=0;entryDy=0;entryPerimeter=0;" edge="1" parent="1" target="uxBXAlIfQE_okUX--2DA-18">
          <mxGeometry x="0.0922" y="-10" relative="1" as="geometry">
            <mxPoint x="150" y="670" as="sourcePoint" />
            <mxPoint x="9.680000000000007" y="670.7" as="targetPoint" />
            <mxPoint as="offset" />
          </mxGeometry>
        </mxCell>
        <mxCell id="7baba1c4bc27f4b0-11" value="Открыть" style="html=1;verticalAlign=bottom;endArrow=block;entryX=0.822;entryY=0.16;labelBackgroundColor=none;fontFamily=Verdana;fontSize=15;edgeStyle=elbowEdgeStyle;elbow=vertical;entryDx=0;entryDy=0;entryPerimeter=0;" parent="1" edge="1">
          <mxGeometry relative="1" as="geometry">
            <mxPoint x="155" y="220.8" as="sourcePoint" />
            <mxPoint x="293.2199999999998" y="219.99999999999994" as="targetPoint" />
            <Array as="points">
              <mxPoint x="190" y="220.8" />
            </Array>
          </mxGeometry>
        </mxCell>
        <mxCell id="uxBXAlIfQE_okUX--2DA-12" value="Информация о&lt;br style=&quot;font-size: 15px;&quot;&gt;плейлисте" style="html=1;verticalAlign=bottom;endArrow=block;labelBackgroundColor=none;fontFamily=Verdana;fontSize=15;edgeStyle=elbowEdgeStyle;elbow=vertical;exitX=0.15;exitY=0.754;exitDx=0;exitDy=0;exitPerimeter=0;dashed=1;" edge="1" parent="1" target="7baba1c4bc27f4b0-9">
          <mxGeometry x="-0.0064" relative="1" as="geometry">
            <mxPoint x="286.4999999999998" y="310.31999999999994" as="sourcePoint" />
            <mxPoint x="160" y="310" as="targetPoint" />
            <Array as="points">
              <mxPoint x="230.32999999999998" y="310" />
            </Array>
            <mxPoint as="offset" />
          </mxGeometry>
        </mxCell>
        <mxCell id="yji1xwqEklzNrVBEh9IV-2" value="Вернуть плейлист" style="html=1;verticalAlign=bottom;endArrow=block;labelBackgroundColor=none;fontFamily=Verdana;fontSize=15;edgeStyle=elbowEdgeStyle;elbow=vertical;exitX=0.15;exitY=0.754;exitDx=0;exitDy=0;exitPerimeter=0;dashed=1;" parent="1" edge="1">
          <mxGeometry x="-0.0042" relative="1" as="geometry">
            <mxPoint x="441.4999999999998" y="290.31999999999994" as="sourcePoint" />
            <mxPoint x="295" y="290" as="targetPoint" />
            <Array as="points">
              <mxPoint x="385.33" y="290" />
            </Array>
            <mxPoint as="offset" />
          </mxGeometry>
        </mxCell>
        <mxCell id="uxBXAlIfQE_okUX--2DA-13" value="Информация о&lt;br style=&quot;font-size: 15px;&quot;&gt;плейлисте" style="html=1;verticalAlign=bottom;endArrow=block;labelBackgroundColor=none;fontFamily=Verdana;fontSize=15;edgeStyle=elbowEdgeStyle;elbow=vertical;exitX=0.15;exitY=0.754;exitDx=0;exitDy=0;exitPerimeter=0;dashed=1;entryX=1.067;entryY=0.286;entryDx=0;entryDy=0;entryPerimeter=0;" edge="1" parent="1" target="uxBXAlIfQE_okUX--2DA-18">
          <mxGeometry x="-0.0064" relative="1" as="geometry">
            <mxPoint x="141.49999999999977" y="320.31999999999994" as="sourcePoint" />
            <mxPoint x="10" y="320" as="targetPoint" />
            <Array as="points">
              <mxPoint x="85.32999999999998" y="320" />
            </Array>
            <mxPoint as="offset" />
          </mxGeometry>
        </mxCell>
        <mxCell id="uxBXAlIfQE_okUX--2DA-20" style="edgeStyle=orthogonalEdgeStyle;rounded=0;orthogonalLoop=1;jettySize=auto;html=1;exitX=0.5;exitY=0.5;exitDx=0;exitDy=0;exitPerimeter=0;dashed=1;endArrow=none;endFill=0;" edge="1" parent="1" source="uxBXAlIfQE_okUX--2DA-15">
          <mxGeometry relative="1" as="geometry">
            <mxPoint x="-5" y="722.0689655172414" as="targetPoint" />
          </mxGeometry>
        </mxCell>
        <mxCell id="uxBXAlIfQE_okUX--2DA-15" value="&lt;font style=&quot;font-size: 15px;&quot;&gt;Пользователь&lt;/font&gt;" style="shape=umlActor;verticalLabelPosition=bottom;verticalAlign=top;html=1;outlineConnect=0;" vertex="1" parent="1">
          <mxGeometry x="-30" y="50" width="50" height="70" as="geometry" />
        </mxCell>
        <mxCell id="uxBXAlIfQE_okUX--2DA-18" value="" style="html=1;points=[];perimeter=orthogonalPerimeter;rounded=0;shadow=0;comic=0;labelBackgroundColor=none;strokeWidth=1;fontFamily=Verdana;fontSize=15;align=center;" vertex="1" parent="1">
          <mxGeometry x="-10" y="180" width="10" height="510" as="geometry" />
        </mxCell>
      </root>
    </mxGraphModel>
  </diagram>
</mxfile>
